<svg xmlns="http://www.w3.org/2000/svg" width="34" height="34" viewBox="0 0 34 34" fill="none">
  <path d="M16.9987 2.83334C9.31895 2.83334 2.83203 9.32026 2.83203 17C2.83203 24.6798 9.31895 31.1667 16.9987 31.1667C24.6784 31.1667 31.1654 24.6798 31.1654 17C31.1654 9.32026 24.6784 2.83334 16.9987 2.83334ZM16.9987 9.91668C19.4453 9.91668 21.2487 11.7187 21.2487 14.1667C21.2487 16.6147 19.4453 18.4167 16.9987 18.4167C14.5535 18.4167 12.7487 16.6147 12.7487 14.1667C12.7487 11.7187 14.5535 9.91668 16.9987 9.91668ZM9.7652 23.7603C11.0359 21.8903 13.1553 20.6437 15.582 20.6437H18.4154C20.8435 20.6437 22.9615 21.8903 24.2322 23.7603C22.4217 25.6983 19.8533 26.9167 16.9987 26.9167C14.1441 26.9167 11.5757 25.6983 9.7652 23.7603Z" fill="#4CA2C4"/>
</svg>