<svg xmlns="http://www.w3.org/2000/svg" width="24" height="24" viewBox="0 0 24 24" fill="none">
  <path d="M17.8947 3.553C17.8116 3.38684 17.6838 3.24711 17.5257 3.14944C17.3677 3.05177 17.1855 3.00003 16.9997 3H6.99974C6.62074 3 6.27474 3.214 6.10474 3.553L2.10474 11.553C2.03522 11.6919 1.99902 11.8451 1.99902 12.0005C1.99902 12.1559 2.03522 12.3091 2.10474 12.448L6.10474 20.448C6.27474 20.786 6.62074 21 6.99974 21H16.9997C17.3787 21 17.7247 20.786 17.8947 20.447L21.8947 12.447C21.9643 12.3081 22.0005 12.1549 22.0005 11.9995C22.0005 11.8441 21.9643 11.6909 21.8947 11.552L17.8947 3.553ZM19.3817 11H11.6177L8.61774 5H16.3817L19.3817 11ZM4.11774 12L6.99974 6.236L9.88174 12L6.99974 17.764L4.11774 12ZM16.3817 19H8.61774L11.6177 13H19.3817L16.3817 19Z" fill="#EAECEF"/>
</svg>