<svg xmlns="http://www.w3.org/2000/svg" width="34" height="34" viewBox="0 0 34 34" fill="none">
  <path d="M2.83398 11.3333V17.0014H4.25065V25.5H2.83398V29.75H25.5007L29.7507 29.7514L31.1673 29.75V25.5H29.7507V17.0014H31.1673V11.3333L17.0007 2.83333L2.83398 11.3333ZM8.50065 25.5V17.0014H11.334V25.5H8.50065ZM15.584 25.5V17.0014H18.4173V25.5H15.584ZM25.5007 25.5H22.6673V17.0014H25.5007V25.5ZM19.834 11.3333C19.8339 11.7055 19.7605 12.074 19.618 12.4178C19.4755 12.7616 19.2666 13.074 19.0034 13.3371C18.7402 13.6002 18.4277 13.8089 18.0838 13.9512C17.74 14.0935 17.3714 14.1668 16.9992 14.1667C16.6271 14.1666 16.2586 14.0932 15.9147 13.9507C15.5709 13.8082 15.2586 13.5993 14.9955 13.3361C14.7324 13.0729 14.5237 12.7604 14.3814 12.4165C14.239 12.0726 14.1658 11.7041 14.1659 11.3319C14.1661 10.5803 14.4649 9.8595 14.9965 9.32815C15.5281 8.7968 16.249 8.49839 17.0007 8.49858C17.7523 8.49877 18.4731 8.79753 19.0044 9.32915C19.5358 9.86077 19.8342 10.5817 19.834 11.3333Z" fill="#0072FF"/>
</svg>