<svg xmlns="http://www.w3.org/2000/svg" width="34" height="34" viewBox="0 0 34 34" fill="none">
  <path d="M2.83331 28.3333H31.1666V31.1667H2.83331V28.3333Z" fill="#0072FF"/>
  <path d="M14.1666 2.83334H8.49998C7.71758 2.83334 7.08331 3.46761 7.08331 4.25001V24.0833C7.08331 24.8657 7.71758 25.5 8.49998 25.5H14.1666C14.949 25.5 15.5833 24.8657 15.5833 24.0833V4.25001C15.5833 3.46761 14.949 2.83334 14.1666 2.83334Z" fill="#0072FF"/>
  <path d="M25.5 8.5H19.8334C19.051 8.5 18.4167 9.13426 18.4167 9.91667V24.0833C18.4167 24.8657 19.051 25.5 19.8334 25.5H25.5C26.2824 25.5 26.9167 24.8657 26.9167 24.0833V9.91667C26.9167 9.13426 26.2824 8.5 25.5 8.5Z" fill="#0072FF"/>
</svg>