<svg xmlns="http://www.w3.org/2000/svg" width="34" height="34" viewBox="0 0 34 34" fill="none">
  <path d="M17 31.1667C17.8773 31.1678 18.7332 30.8955 19.4487 30.3877C20.1642 29.88 20.7036 29.1619 20.9922 28.3333H13.0078C13.2964 29.1619 13.8358 29.88 14.5513 30.3877C15.2668 30.8955 16.1227 31.1678 17 31.1667ZM26.9167 20.6635V14.1667C26.9167 9.60926 23.8213 5.77009 19.6279 4.61551C19.2128 3.57001 18.1985 2.83334 17 2.83334C15.8015 2.83334 14.7872 3.57001 14.3721 4.61551C10.1788 5.77151 7.08333 9.60926 7.08333 14.1667V20.6635L4.66508 23.0818C4.53327 23.2131 4.42874 23.3692 4.3575 23.5411C4.28627 23.713 4.24973 23.8973 4.25 24.0833V25.5C4.25 25.8757 4.39926 26.2361 4.66493 26.5017C4.93061 26.7674 5.29094 26.9167 5.66667 26.9167H28.3333C28.7091 26.9167 29.0694 26.7674 29.3351 26.5017C29.6007 26.2361 29.75 25.8757 29.75 25.5V24.0833C29.7503 23.8973 29.7137 23.713 29.6425 23.5411C29.5713 23.3692 29.4667 23.2131 29.3349 23.0818L26.9167 20.6635Z" fill="#0072FF"/>
</svg>