<svg xmlns="http://www.w3.org/2000/svg" width="34" height="34" viewBox="0 0 34 34" fill="none">
  <path d="M9.91667 15.5833H12.75V18.4167H9.91667V15.5833ZM9.91667 21.25H12.75V24.0833H9.91667V21.25ZM15.5833 15.5833H18.4167V18.4167H15.5833V15.5833ZM15.5833 21.25H18.4167V24.0833H15.5833V21.25ZM21.25 15.5833H24.0833V18.4167H21.25V15.5833ZM21.25 21.25H24.0833V24.0833H21.25V21.25Z" fill="#4CA2C4"/>
  <path d="M7.08333 31.1667H26.9167C28.4792 31.1667 29.75 29.8959 29.75 28.3333V8.50001C29.75 6.93743 28.4792 5.66668 26.9167 5.66668H24.0833V2.83334H21.25V5.66668H12.75V2.83334H9.91667V5.66668H7.08333C5.52075 5.66668 4.25 6.93743 4.25 8.50001V28.3333C4.25 29.8959 5.52075 31.1667 7.08333 31.1667ZM26.9167 11.3333L26.9181 28.3333H7.08333V11.3333H26.9167Z" fill="#4CA2C4"/>
</svg>