<svg xmlns="http://www.w3.org/2000/svg" width="34" height="34" viewBox="0 0 34 34" fill="none">
  <path d="M29.75 5.66667H2.83333V8.5H6.09166L10.7383 21.25C11.0306 22.0767 11.5714 22.7928 12.2867 23.3C13.0019 23.8073 13.8565 24.0809 14.7333 24.0833H26.9167V21.25H14.7333C14.4422 21.2499 14.1581 21.1601 13.9199 20.9928C13.6816 20.8255 13.5007 20.5888 13.4017 20.315L12.75 18.4167H25.8967C26.5115 18.4158 27.1094 18.2149 27.6001 17.8443C28.0908 17.4738 28.4476 16.9537 28.6167 16.3625L31.1667 7.46583C31.2242 7.2798 31.2429 7.0839 31.2213 6.89035C31.1998 6.6968 31.1386 6.50977 31.0416 6.34093C30.9445 6.1721 30.8137 6.02508 30.6573 5.90907C30.5009 5.79306 30.3222 5.71054 30.1325 5.66667C30.0058 5.64604 29.8767 5.64604 29.75 5.66667ZM25.8542 15.5833H11.6875L9.10916 8.5H27.8658L25.8542 15.5833Z" fill="#EC8901"/>
  <path d="M14.875 29.75C16.0486 29.75 17 28.7986 17 27.625C17 26.4514 16.0486 25.5 14.875 25.5C13.7014 25.5 12.75 26.4514 12.75 27.625C12.75 28.7986 13.7014 29.75 14.875 29.75Z" fill="#EC8901"/>
  <path d="M23.375 29.75C24.5486 29.75 25.5 28.7986 25.5 27.625C25.5 26.4514 24.5486 25.5 23.375 25.5C22.2014 25.5 21.25 26.4514 21.25 27.625C21.25 28.7986 22.2014 29.75 23.375 29.75Z" fill="#EC8901"/>
</svg>