<svg xmlns="http://www.w3.org/2000/svg" width="34" height="34" viewBox="0 0 34 34" fill="none">
  <path d="M18.4156 15.2717C18.4156 15.3992 17.9623 15.8383 16.8431 16.1783C16.0765 16.4152 15.2795 16.5393 14.4773 16.5467H14.0664C11.4172 16.5467 9.81641 15.6258 9.81641 15.2575C9.81641 14.8892 11.3889 13.9542 14.0664 13.9542H14.5481H15.1431C16.1926 14.0025 17.2121 14.3195 18.1039 14.875C18.3164 15.1158 18.4156 15.2433 18.4156 15.2717Z" fill="#E7414B"/>
  <path d="M17.441 18.2183C17.7743 18.1163 18.1007 17.9932 18.4185 17.85V18.6575C18.4185 18.7992 17.9226 19.295 16.6193 19.6492C15.7945 19.8533 14.9474 19.9532 14.0977 19.9467C11.7035 19.9467 10.1593 19.2383 9.84766 18.7283V17.8925C11.1944 18.4501 12.6401 18.7296 14.0977 18.7142H14.6076C15.5696 18.6714 16.5218 18.5048 17.441 18.2183Z" fill="#E7414B"/>
  <path d="M17.1293 21.7033C17.5703 21.5863 18.0013 21.4347 18.4185 21.25V22.185C18.4185 22.4825 17.0018 23.4742 14.0977 23.4742C11.1935 23.4742 9.84766 22.4825 9.84766 22.185V21.25C11.1935 21.8107 12.6398 22.0904 14.0977 22.0717C15.1195 22.0742 16.1378 21.9504 17.1293 21.7033Z" fill="#E7414B"/>
  <path d="M24.2379 11.8008C24.2379 12.1408 22.6654 13.1042 19.9879 13.1042C19.7045 13.1042 19.4212 13.1042 19.1379 13.1042C18.1044 12.491 16.9483 12.1137 15.752 11.9992C15.7098 11.9822 15.6724 11.9553 15.6428 11.9208C15.6132 11.8863 15.5924 11.8451 15.582 11.8008C15.6529 11.4325 17.2395 10.5117 19.9029 10.5117C22.5662 10.5117 24.167 11.4325 24.2379 11.8008Z" fill="#E7414B"/>
  <path d="M20.5117 15.2008C21.7917 15.1658 23.0544 14.897 24.2376 14.4075V15.2008C24.2376 15.5408 22.8209 16.3483 20.5117 16.4617V15.2008Z" fill="#E7414B"/>
  <path d="M20.5117 18.5867C21.7918 18.5532 23.0548 18.2844 24.2376 17.7933V18.7283C24.2376 19.0117 22.9767 19.8758 20.5117 19.9892V18.5867Z" fill="#E7414B"/>
  <path d="M25.8529 2.83333H8.14453C6.73557 2.83333 5.38431 3.39304 4.38803 4.38932C3.39174 5.38561 2.83203 6.73687 2.83203 8.14583V25.8542C2.83577 27.2619 3.39669 28.611 4.39216 29.6065C5.38764 30.602 6.73672 31.163 8.14453 31.1667H25.8529C27.2606 31.163 28.6097 30.602 29.6052 29.6065C30.6007 28.611 31.1617 27.2619 31.1654 25.8542V8.14583C31.1654 6.73687 30.6056 5.38561 29.6094 4.38932C28.6131 3.39304 27.2619 2.83333 25.8529 2.83333ZM26.3629 18.7283C26.3629 20.8392 23.5295 21.9867 20.512 22.1142V22.185C20.512 24.4233 17.2679 25.5992 14.0662 25.5992C10.8645 25.5992 7.63453 24.4233 7.63453 22.185V15.2717C7.63453 13.1608 10.4679 11.9992 13.4995 11.8717C13.4995 7.395 26.377 7.38083 26.377 11.8717L26.3629 18.7283Z" fill="#E7414B"/>
</svg>