<svg xmlns="http://www.w3.org/2000/svg" width="34" height="34" viewBox="0 0 34 34" fill="none">
  <path d="M17.0007 2.83333C14.1988 2.83333 11.4598 3.66419 9.13008 5.22085C6.80038 6.7775 4.98461 8.99003 3.91236 11.5786C2.84012 14.1673 2.55958 17.0157 3.1062 19.7638C3.65282 22.5118 5.00207 25.0361 6.98331 27.0173C8.96456 28.9986 11.4888 30.3478 14.2369 30.8945C16.9849 31.4411 19.8334 31.1605 22.422 30.0883C25.0106 29.0161 27.2232 27.2003 28.7798 24.8706C30.3365 22.5409 31.1673 19.8019 31.1673 17C31.1673 15.1396 30.8009 13.2974 30.089 11.5786C29.377 9.85987 28.3335 8.29815 27.018 6.98265C25.7025 5.66716 24.1408 4.62365 22.422 3.91171C20.7032 3.19976 18.8611 2.83333 17.0007 2.83333ZM17.0007 28.3333C14.7591 28.3333 12.568 27.6686 10.7042 26.4233C8.84044 25.178 7.38782 23.408 6.53002 21.3371C5.67223 19.2662 5.44779 16.9874 5.88509 14.789C6.32239 12.5905 7.40179 10.5711 8.98678 8.98612C10.5718 7.40113 12.5912 6.32173 14.7896 5.88443C16.9881 5.44713 19.2668 5.67157 21.3377 6.52936C23.4086 7.38716 25.1787 8.83978 26.424 10.7035C27.6693 12.5673 28.334 14.7585 28.334 17C28.334 20.0058 27.1399 22.8885 25.0145 25.0139C22.8891 27.1393 20.0064 28.3333 17.0007 28.3333Z" fill="#58AD3B"/>
  <path d="M17.0007 15.5833C14.1673 15.5833 14.1673 14.6908 14.1673 14.1667C14.1673 13.6425 15.159 12.75 17.0007 12.75C18.8423 12.75 18.9698 13.6567 18.984 14.1667H21.8173C21.7982 13.2016 21.4511 12.2717 20.8331 11.5302C20.2151 10.7886 19.3631 10.2795 18.4173 10.0867V8.5H15.584V10.0442C12.7507 10.5117 11.334 12.3392 11.334 14.1667C11.334 15.7533 12.0707 18.4167 17.0007 18.4167C19.834 18.4167 19.834 19.38 19.834 19.8333C19.834 20.2867 18.9557 21.25 17.0007 21.25C14.394 21.25 14.1673 20.0317 14.1673 19.8333H11.334C11.334 21.1367 12.269 23.4458 15.584 23.97V25.5H18.4173V23.97C21.2507 23.4883 22.6673 21.6608 22.6673 19.8333C22.6673 18.2467 21.9307 15.5833 17.0007 15.5833Z" fill="#58AD3B"/>
</svg>