<svg xmlns="http://www.w3.org/2000/svg" width="30" height="30" viewBox="0 0 30 30" fill="none">
  <path d="M3.55489 15H0.433594C0.433594 6.96818 6.96841 0.433475 15.0002 0.433475V3.55465C8.68922 3.55465 3.55489 8.68898 3.55489 15ZM29.0002 15L26.4456 15.001C26.4456 21.31 21.3113 26.4453 15.0002 26.4453V29.5665C23.0331 29.5665 29.5668 23.0339 29.5668 15.001L29.0002 15ZM17.5558 6.72215C17.5558 3.56144 20.1173 1 23.278 1C26.4376 1 29.0001 3.56144 29.0001 6.72215C29.0001 9.88182 26.4376 12.4443 23.278 12.4443C20.1173 12.4443 17.5558 9.88182 17.5558 6.72215ZM20.4793 3.54688L21.4937 5.34676H20.6968V6.23525H21.9733L22.4207 7.00722H20.6999V7.89572H22.6267V9.89535H23.8315V7.89572H25.8529V7.00722H24.0499L24.5129 6.23525H25.8519V5.34676H25.0144L26.0756 3.54688H24.6669L23.2592 6.24045H23.2228L21.8516 3.54688H20.4793ZM12.9444 22.7778C12.9444 25.9375 10.3819 28.5 7.22227 28.5C4.06156 28.5 1.50012 25.9375 1.50012 22.7778C1.50012 19.6161 4.06156 17.0557 7.22227 17.0557C10.3819 17.0557 12.9444 19.6161 12.9444 22.7778ZM9.83366 23.6008H8.73916L8.74749 23.8567C8.75893 24.2292 8.67882 24.4778 8.5082 24.5965C8.34798 24.7088 7.99632 24.765 7.4522 24.765C6.84045 24.765 6.47423 24.6641 6.35355 24.4622C6.29112 24.3582 6.24534 24.1501 6.21413 23.839H7.86419L7.96927 23.1326H6.17668C6.17044 22.9277 6.16836 22.7206 6.16836 22.5084V22.4252H8.07435L8.17943 21.7167H6.19749C6.2287 21.366 6.288 21.1382 6.37435 21.0352C6.51272 20.8708 6.88935 20.7876 7.5063 20.7876C7.96615 20.7876 8.26266 20.824 8.39479 20.8958C8.59039 21.004 8.69026 21.263 8.69026 21.6657V21.8155H9.78372L9.77956 21.6854C9.75459 20.9312 9.61725 20.4453 9.36756 20.2206C9.09498 19.9771 8.54877 19.8533 7.72686 19.8533C6.65526 19.8533 5.94363 20.0031 5.59302 20.3017C5.30067 20.5462 5.13004 21.0185 5.08011 21.7177H4.71701L4.61193 22.4252H5.06242C5.06554 22.6873 5.07074 22.9225 5.08011 23.1337H4.71701L4.61193 23.8401H5.129C5.19455 24.4945 5.30171 24.9283 5.45361 25.1447C5.71474 25.5151 6.38476 25.7003 7.46156 25.7003C8.38439 25.7003 8.98574 25.6088 9.26664 25.4267C9.64431 25.1832 9.8347 24.6402 9.8347 23.7985L9.83366 23.6008Z" fill="#E7414B"/>
</svg>