<svg xmlns="http://www.w3.org/2000/svg" width="25" height="24" viewBox="0 0 25 24" fill="none">
  <path d="M12.5 8C10.332 8 8.5 9.832 8.5 12C8.5 14.168 10.332 16 12.5 16C14.668 16 16.5 14.168 16.5 12C16.5 9.832 14.668 8 12.5 8ZM12.5 14C11.435 14 10.5 13.065 10.5 12C10.5 10.935 11.435 10 12.5 10C13.565 10 14.5 10.935 14.5 12C14.5 13.065 13.565 14 12.5 14Z" fill="#EAECEF"/>
  <path d="M20.5 5H17.914L15.207 2.293C15.1143 2.19996 15.0041 2.12617 14.8828 2.07589C14.7614 2.0256 14.6313 1.99981 14.5 2H10.5C10.3687 1.99981 10.2386 2.0256 10.1172 2.07589C9.9959 2.12617 9.88571 2.19996 9.793 2.293L7.086 5H4.5C3.397 5 2.5 5.897 2.5 7V18C2.5 19.103 3.397 20 4.5 20H20.5C21.603 20 22.5 19.103 22.5 18V7C22.5 5.897 21.603 5 20.5 5ZM4.5 18V7H7.5C7.766 7 8.02 6.895 8.207 6.707L10.914 4H14.086L16.793 6.707C16.8857 6.80004 16.9959 6.87383 17.1172 6.92412C17.2386 6.9744 17.3687 7.00019 17.5 7H20.5L20.502 18H4.5Z" fill="#EAECEF"/>
</svg>