<svg xmlns="http://www.w3.org/2000/svg" width="34" height="34" viewBox="0 0 34 34" fill="none">
  <path d="M28.3333 24.0833C28.3333 24.4591 28.1841 24.8194 27.9184 25.0851C27.6527 25.3507 27.2924 25.5 26.9167 25.5C26.5409 25.5 26.1806 25.3507 25.9149 25.0851C25.6493 24.8194 25.5 24.4591 25.5 24.0833V7.08333C25.5 6.70761 25.3507 6.34728 25.0851 6.0816C24.8194 5.81592 24.4591 5.66667 24.0833 5.66667H4.24999C3.87427 5.66667 3.51394 5.81592 3.24826 6.0816C2.98258 6.34728 2.83333 6.70761 2.83333 7.08333V25.5C2.83333 26.2514 3.13184 26.9721 3.66319 27.5035C4.19455 28.0348 4.91522 28.3333 5.66666 28.3333H26.9167C29.2598 28.3333 31.1667 26.4265 31.1667 24.0833V9.91667H28.3333V24.0833ZM17 9.91667H21.25V12.75H17V9.91667ZM17 15.5833H21.25V18.4167H17V15.5833ZM7.08333 9.91667H14.1667V18.4167H7.08333V9.91667ZM7.08333 24.0833V21.25H21.25V24.0833H7.08333Z" fill="#58AD3B"/>
</svg>