<svg xmlns="http://www.w3.org/2000/svg" width="34" height="34" viewBox="0 0 34 34" fill="none">
  <path d="M20.1417 4.95784C18.1286 4.01405 15.8726 4.01405 13.8595 4.95784L4.38042 9.40184C2.85608 10.1165 2.45867 12.1317 3.18815 13.5244V20.5417C3.18815 21.1285 3.66385 21.6042 4.25065 21.6042C4.83745 21.6042 5.31315 21.1285 5.31315 20.5417V15.1187L13.8596 19.1254C15.8727 20.0692 18.1287 20.0692 20.1418 19.1254L29.6209 14.6815C31.6828 13.7148 31.6828 10.3686 29.6209 9.40191L20.1417 4.95784Z" fill="#4CA2C4"/>
  <path d="M7.08398 18.2958V23.5527C7.08398 24.9807 7.79728 26.3177 9.04654 27.0096C11.1267 28.1615 14.4563 29.75 17.0007 29.75C19.545 29.75 22.8746 28.1615 24.9548 27.0096C26.204 26.3177 26.9173 24.9807 26.9173 23.5527V18.296L21.0438 21.0496C18.4593 22.2612 15.5422 22.2612 12.9576 21.0496L7.08398 18.2958Z" fill="#4CA2C4"/>
</svg>