<svg xmlns="http://www.w3.org/2000/svg" width="34" height="34" viewBox="0 0 34 34" fill="none">
  <path d="M25.5 7.66983L27.9183 5.25158L25.9151 3.24841L23.7008 5.46125C21.9342 3.83633 19.584 2.83333 17 2.83333C14.416 2.83333 12.0657 3.83633 10.2992 5.46125L8.08492 3.24841L6.08175 5.25158L8.5 7.66983C7.57372 9.20251 7.08386 10.9592 7.08333 12.75H4.25V15.5833H7.08333V18.4167H4.25V21.25H7.08333C7.08333 26.7183 11.5331 31.1667 17 31.1667C22.4669 31.1667 26.9167 26.7183 26.9167 21.25H29.75V18.4167H26.9167V15.5833H29.75V12.75H26.9167C26.9161 10.9592 26.4263 9.20251 25.5 7.66983ZM21.25 21.25H12.75V18.4167H21.25V21.25ZM21.25 15.5833H12.75V12.75H21.25V15.5833Z" fill="#EC8901"/>
</svg>