<svg xmlns="http://www.w3.org/2000/svg" width="20" height="21" viewBox="0 0 20 21" fill="none">
  <path d="M12.5 10.155V5.50001H14.1667V3.83334C14.1667 3.39131 13.9911 2.96739 13.6785 2.65483C13.366 2.34227 12.942 2.16667 12.5 2.16667H7.5C7.05797 2.16667 6.63405 2.34227 6.32149 2.65483C6.00893 2.96739 5.83333 3.39131 5.83333 3.83334V5.50001H7.5V10.155L5.24417 11.5775C5.16663 11.6548 5.10514 11.7466 5.06324 11.8477C5.02133 11.9488 4.99984 12.0572 5 12.1667V13.8333C5 14.0544 5.0878 14.2663 5.24408 14.4226C5.40036 14.5789 5.61232 14.6667 5.83333 14.6667H9.16667V17.1667L10 18.8333L10.8333 17.1667V14.6667H14.1667C14.3877 14.6667 14.5996 14.5789 14.7559 14.4226C14.9122 14.2663 15 14.0544 15 13.8333V12.1667C15.0002 12.0572 14.9787 11.9488 14.9368 11.8477C14.8949 11.7466 14.8334 11.6548 14.7558 11.5775L12.5 10.155Z" fill="#8F9297"/>
</svg>