<svg xmlns="http://www.w3.org/2000/svg" width="34" height="34" viewBox="0 0 34 34" fill="none">
  <path d="M28.3333 8.49999H24.0833V5.66666C24.0833 4.10408 22.8126 2.83333 21.25 2.83333H12.75C11.1874 2.83333 9.91666 4.10408 9.91666 5.66666V8.49999H5.66666C4.10408 8.49999 2.83333 9.77074 2.83333 11.3333V26.9167C2.83333 28.4792 4.10408 29.75 5.66666 29.75H28.3333C29.8959 29.75 31.1667 28.4792 31.1667 26.9167V11.3333C31.1667 9.77074 29.8959 8.49999 28.3333 8.49999ZM21.25 5.66666V8.49999H12.75V5.66666H21.25ZM11.3333 11.3333H28.3333V15.5833H5.66666V11.3333H11.3333ZM5.66666 26.9167V18.4167H14.1667V21.25H19.8333V18.4167H28.3333L28.3347 26.9167H5.66666Z" fill="#DBA416"/>
</svg>