<svg xmlns="http://www.w3.org/2000/svg" width="34" height="34" viewBox="0 0 34 34" fill="none">
  <path d="M22.6666 2.83333H11.3333C6.64556 2.83333 2.83331 6.64558 2.83331 11.3333V28.3333C2.83331 28.7091 2.98257 29.0694 3.24825 29.3351C3.51392 29.6007 3.87426 29.75 4.24998 29.75H22.6666C27.3544 29.75 31.1666 25.9377 31.1666 21.25V11.3333C31.1666 6.64558 27.3544 2.83333 22.6666 2.83333ZM28.3333 21.25C28.3333 24.3752 25.7918 26.9167 22.6666 26.9167H5.66665V11.3333C5.66665 8.20816 8.20815 5.66666 11.3333 5.66666H22.6666C25.7918 5.66666 28.3333 8.20816 28.3333 11.3333V21.25Z" fill="#E7414B"/>
  <path d="M15.9375 19.1109V18.9962C15.9455 18.2476 16.02 17.652 16.1609 17.2093C16.3058 16.7666 16.511 16.4084 16.7766 16.1347C17.0423 15.861 17.3622 15.6115 17.7365 15.3861C17.978 15.2332 18.1953 15.0622 18.3885 14.873C18.5817 14.6838 18.7346 14.4665 18.8473 14.221C18.96 13.9755 19.0163 13.7038 19.0163 13.406C19.0163 13.0478 18.9318 12.7379 18.7628 12.4763C18.5938 12.2147 18.3684 12.0135 18.0866 11.8726C17.8089 11.7278 17.4991 11.6553 17.157 11.6553C16.8471 11.6553 16.5513 11.7197 16.2695 11.8485C15.9878 11.9773 15.7544 12.1785 15.5692 12.4522C15.3841 12.7218 15.2775 13.07 15.2493 13.4966H13.4141C13.4422 12.7721 13.6254 12.1604 13.9634 11.6613C14.3015 11.1583 14.7482 10.7779 15.3036 10.5204C15.863 10.2628 16.4808 10.134 17.157 10.134C17.8975 10.134 18.5455 10.2729 19.1009 10.5506C19.6563 10.8242 20.0869 11.2086 20.3928 11.7036C20.7027 12.1946 20.8576 12.7681 20.8576 13.4241C20.8576 13.8749 20.7872 14.2814 20.6463 14.6436C20.5054 15.0018 20.3042 15.3217 20.0426 15.6035C19.785 15.8852 19.4751 16.1347 19.1129 16.352C18.7708 16.5653 18.4931 16.7867 18.2798 17.0161C18.0705 17.2455 17.9176 17.5172 17.821 17.8311C17.7244 18.145 17.6721 18.5334 17.6641 18.9962V19.1109H15.9375ZM16.8491 22.7814C16.5191 22.7814 16.2353 22.6647 15.9979 22.4312C15.7604 22.1938 15.6417 21.908 15.6417 21.574C15.6417 21.244 15.7604 20.9622 15.9979 20.7288C16.2353 20.4914 16.5191 20.3726 16.8491 20.3726C17.1751 20.3726 17.4568 20.4914 17.6942 20.7288C17.9357 20.9622 18.0565 21.244 18.0565 21.574C18.0565 21.7953 18.0001 21.9986 17.8874 22.1837C17.7788 22.3648 17.6339 22.5097 17.4528 22.6184C17.2717 22.727 17.0704 22.7814 16.8491 22.7814Z" fill="#E7414B"/>
</svg>