<svg xmlns="http://www.w3.org/2000/svg" width="15" height="16" viewBox="0 0 15 16" fill="currentColor">
  <path d="M3.125 13C3.125 13.3315 3.2567 13.6495 3.49112 13.8839C3.72554 14.1183 4.04348 14.25 4.375 14.25H10.625C10.9565 14.25 11.2745 14.1183 11.5089 13.8839C11.7433 13.6495 11.875 13.3315 11.875 13V5.5H13.125V4.25H10.625V3C10.625 2.66848 10.4933 2.35054 10.2589 2.11612C10.0245 1.8817 9.70652 1.75 9.375 1.75H5.625C5.29348 1.75 4.97554 1.8817 4.74112 2.11612C4.5067 2.35054 4.375 2.66848 4.375 3V4.25H1.875V5.5H3.125V13ZM5.625 3H9.375V4.25H5.625V3ZM5 5.5H10.625V13H4.375V5.5H5Z" fill="currentColor"/>
  <path d="M5.625 6.75H6.875V11.75H5.625V6.75ZM8.125 6.75H9.375V11.75H8.125V6.75Z" fill="currentColor"/>
</svg>