<svg xmlns="http://www.w3.org/2000/svg" width="34" height="34" viewBox="0 0 34 34" fill="none">
  <path d="M17.0007 2.83333C9.18915 2.83333 2.83398 9.1885 2.83398 17C2.83398 24.8115 9.18915 31.1667 17.0007 31.1667C24.8122 31.1667 31.1673 24.8115 31.1673 17C31.1673 9.1885 24.8122 2.83333 17.0007 2.83333ZM28.2362 15.5833H24.3206C24.1458 12.4826 23.2783 9.46045 21.7819 6.73908C23.5162 7.54949 25.0174 8.78531 26.1458 10.3316C27.2743 11.8779 27.9934 13.6845 28.2362 15.5833ZM17.7515 5.70492C19.2177 7.63725 21.1897 11.0599 21.4731 15.5833H12.7932C12.9901 11.9057 14.2013 8.46033 16.2654 5.7035C16.5091 5.68933 16.7527 5.66667 17.0007 5.66667C17.2542 5.66667 17.5022 5.68933 17.7515 5.70492ZM12.3087 6.69658C10.9147 9.3755 10.11 12.4128 9.95982 15.5833H5.76507C6.00982 13.6678 6.73922 11.8463 7.88425 10.2913C9.02928 8.7362 10.5521 7.49897 12.3087 6.69658ZM5.76507 18.4167H9.97824C10.1709 21.7869 10.9203 24.7605 12.1826 27.2425C10.4573 26.4292 8.96493 25.1943 7.84326 23.6516C6.72159 22.109 6.00684 20.3086 5.76507 18.4167ZM16.2215 28.2951C14.2367 25.8896 13.0652 22.5193 12.8087 18.4167H21.4688C21.1742 22.3451 19.8864 25.7777 17.7812 28.2937C17.5234 28.3107 17.2656 28.3333 17.0007 28.3333C16.7372 28.3333 16.4807 28.3107 16.2215 28.2951ZM21.9037 27.2014C23.2567 24.6599 24.0826 21.675 24.2993 18.4167H28.2348C27.9957 20.2927 27.2913 22.0792 26.1855 23.6135C25.0798 25.1478 23.6078 26.3812 21.9037 27.2014Z" fill="#EC8901"/>
</svg>