<svg width="194" height="46" viewBox="0 0 194 46" fill="none" xmlns="http://www.w3.org/2000/svg">
<path d="M28.9359 3.05392H27.3718L27.3718 23.7373H28.9359V26.6524H29.9312V23.7373H31.4953L31.4953 3.05392H29.9312V0L28.9359 0V3.05392Z" fill="#0072FF"/>
<path d="M9.81129 21.8473H8.24719L8.24719 42.4229H9.81129V45.3229H10.8066V42.4229H12.3707L12.3707 21.8473H10.8066V18.8094H9.81129V21.8473Z" fill="#0072FF"/>
<path d="M40.0979 3.26215L36.2588 3.26215H36.2454V38.6598H18.2005V42.4078H40.0979V3.26215Z" fill="#EAECEF"/>
<path d="M0 42.4078H3.83916H3.85252L3.85252 7.01013L21.8974 7.01013V3.26215L0 3.26215L0 42.4078Z" fill="#EAECEF"/>
<path d="M19.6223 12.5627H18.0582L18.0582 33.246H19.6223V36.1611H20.6177V33.246H22.1818L22.1818 12.5627H20.6177V9.50879H19.6223V12.5627Z" fill="#0072FF"/>
<path d="M57.088 12.3577C56.8774 11.979 56.5727 11.6923 56.1737 11.4975C55.7858 11.292 55.3259 11.1892 54.7939 11.1892C53.8741 11.1892 53.1371 11.4867 52.583 12.0818C52.0289 12.666 51.7518 13.4504 51.7518 14.435C51.7518 15.4845 52.0399 16.3067 52.6162 16.9018C53.2036 17.486 54.0071 17.7782 55.0267 17.7782C55.7249 17.7782 56.3122 17.605 56.7888 17.2588C57.2764 16.9126 57.6311 16.4149 57.8527 15.7658H54.2454V13.7209L60.4294 13.7209V16.3013C60.2188 16.9938 59.8586 17.6375 59.3489 18.2326C58.8501 18.8276 58.2129 19.3091 57.4371 19.6769C56.6613 20.0448 55.7858 20.2287 54.8106 20.2287C53.658 20.2287 52.6273 19.9853 51.7185 19.4984C50.8209 19.0007 50.1171 18.3137 49.6073 17.4373C49.1086 16.561 48.8593 15.5602 48.8593 14.435C48.8593 13.3098 49.1086 12.309 49.6073 11.4326C50.1171 10.5454 50.8209 9.85841 51.7185 9.37154C52.6162 8.87385 53.6414 8.625 54.7939 8.625C56.1903 8.625 57.3651 8.95499 58.3182 9.61497C59.2824 10.275 59.9196 11.1892 60.2299 12.3577L57.088 12.3577ZM65.1791 10.9782V13.2827L68.986 13.2827V15.425L65.1791 15.425V17.9242H69.4847V20.1476H62.3364V8.75483H69.4847V10.9782L65.1791 10.9782ZM82.5181 20.1476H79.6754L74.9209 13.1204V20.1476H72.0783V8.75483H74.9209L79.6754 15.8144V8.75483H82.5181V20.1476ZM88.1692 10.9782V13.2827L91.9761 13.2827V15.425L88.1692 15.425V17.9242H92.4748V20.1476H85.3266V8.75483H92.4748V10.9782H88.1692ZM100.272 20.1476L97.8446 15.8469H97.163V20.1476H94.3203V8.75483H99.0914C100.011 8.75483 100.793 8.91171 101.435 9.22547C102.089 9.53923 102.577 9.972 102.898 10.5238C103.22 11.0648 103.38 11.6706 103.38 12.3414C103.38 13.0988 103.159 13.775 102.715 14.3701C102.283 14.9651 101.64 15.3871 100.787 15.6359L103.48 20.1476H100.272ZM97.163 13.8832H98.9251C99.446 13.8832 99.8339 13.7588 100.089 13.5099C100.355 13.2611 100.488 12.9095 100.488 12.455C100.488 12.0223 100.355 11.6815 100.089 11.4326C99.8339 11.1838 99.446 11.0594 98.9251 11.0594L97.163 11.0594V13.8832ZM112.429 18.1352H108.074L107.376 20.1476H104.4L108.623 8.75483H111.914L116.137 20.1476H113.128L112.429 18.1352ZM111.698 15.993L110.252 11.8221L108.822 15.993H111.698ZM120.264 18.0054H123.988V20.1476H117.422V8.75483H120.264V18.0054Z" fill="#EAECEF"/>
<path d="M138.085 8.75482V10.9782H134.993V20.1476H132.15V10.9782H129.058V8.75482L138.085 8.75482ZM145.629 20.1476L143.202 15.8469H142.52V20.1476H139.677V8.75482H144.449C145.368 8.75482 146.15 8.9117 146.792 9.22546C147.446 9.53922 147.934 9.97199 148.255 10.5238C148.577 11.0647 148.737 11.6706 148.737 12.3414C148.737 13.0988 148.516 13.775 148.073 14.3701C147.64 14.9651 146.997 15.3871 146.144 15.6359L148.837 20.1476H145.629ZM142.52 13.8832H144.282C144.803 13.8832 145.191 13.7588 145.446 13.5099C145.712 13.2611 145.845 12.9094 145.845 12.455C145.845 12.0223 145.712 11.6815 145.446 11.4326C145.191 11.1838 144.803 11.0593 144.282 11.0593H142.52V13.8832ZM157.953 18.1352H153.597L152.899 20.1476L149.924 20.1476L154.146 8.75482H157.438L161.66 20.1476H158.651L157.953 18.1352ZM157.221 15.9929L155.775 11.8221L154.346 15.9929H157.221ZM167.483 8.75482C168.713 8.75482 169.788 8.99284 170.708 9.46889C171.628 9.94494 172.337 10.6157 172.836 11.4813C173.346 12.336 173.601 13.326 173.601 14.4512C173.601 15.5656 173.346 16.5556 172.836 17.4211C172.337 18.2867 171.623 18.9574 170.692 19.4335C169.772 19.9095 168.702 20.1476 167.483 20.1476L163.111 20.1476V8.75482L167.483 8.75482ZM167.3 17.7457C168.375 17.7457 169.212 17.459 169.811 16.8855C170.409 16.3121 170.708 15.5007 170.708 14.4512C170.708 13.4017 170.409 12.5849 169.811 12.0006C169.212 11.4164 168.375 11.1243 167.3 11.1243L165.954 11.1243V17.7457H167.3ZM178.198 10.9782V13.2827H182.005V15.4249H178.198V17.9242H182.504V20.1476H175.356V8.75482L182.504 8.75482V10.9782H178.198ZM190.467 20.1476L188.04 15.8469H187.358V20.1476H184.516V8.75482H189.287C190.207 8.75482 190.988 8.9117 191.631 9.22546C192.285 9.53922 192.772 9.97199 193.094 10.5238C193.415 11.0647 193.576 11.6706 193.576 12.3414C193.576 13.0988 193.354 13.775 192.911 14.3701C192.479 14.9651 191.836 15.3871 190.982 15.6359L193.675 20.1476H190.467ZM187.358 13.8832H189.121C189.641 13.8832 190.029 13.7588 190.284 13.5099C190.55 13.2611 190.683 12.9094 190.683 12.455C190.683 12.0223 190.55 11.6815 190.284 11.4326C190.029 11.1838 189.641 11.0593 189.121 11.0593H187.358V13.8832Z" fill="#EAECEF"/>
<path d="M55.8689 30.5198C55.6895 30.1974 55.4299 29.953 55.0901 29.7871C54.7598 29.6119 54.3679 29.5245 53.9147 29.5245C53.1313 29.5245 52.5032 29.7778 52.0313 30.2848C51.5594 30.7825 51.3233 31.4506 51.3233 32.2894C51.3233 33.1835 51.5686 33.8837 52.0596 34.3907C52.5599 34.8884 53.2445 35.1373 54.113 35.1373C54.7077 35.1373 55.208 34.9897 55.614 34.6949C56.0293 34.4001 56.3316 33.976 56.5203 33.423H53.4474V31.6811H58.7153V33.8792C58.5358 34.4692 58.2292 35.0174 57.7948 35.5244C57.37 36.0314 56.8273 36.4413 56.1663 36.7548C55.5054 37.0682 54.7598 37.2248 53.9289 37.2248C52.9472 37.2248 52.0692 37.0174 51.2949 36.6027C50.5302 36.1786 49.9309 35.5935 49.4965 34.847C49.0717 34.1004 48.8593 33.2478 48.8593 32.2894C48.8593 31.331 49.0717 30.4784 49.4965 29.7318C49.9309 28.976 50.5302 28.3908 51.2949 27.9761C52.0596 27.552 52.933 27.3402 53.9147 27.3402C55.1042 27.3402 56.1051 27.6212 56.9169 28.1835C57.7382 28.7458 58.2809 29.5245 58.5454 30.5198H55.8689ZM65.2678 37.1557L63.2003 33.4921H62.6197V37.1557H60.1982V27.4508L64.2624 27.4508C65.0459 27.4508 65.7114 27.5845 66.2591 27.8517C66.816 28.1188 67.2316 28.4876 67.5053 28.9576C67.7789 29.4184 67.9159 29.9347 67.9159 30.506C67.9159 31.1513 67.7272 31.7271 67.3495 32.2341C66.9813 32.7411 66.4336 33.1005 65.7068 33.3124L68.0009 37.1557H65.2678ZM62.6197 31.8194H64.1208C64.5644 31.8194 64.895 31.7133 65.1121 31.5014C65.3386 31.2895 65.4519 30.9899 65.4519 30.6028C65.4519 30.234 65.3386 29.9437 65.1121 29.7318C64.895 29.5199 64.5644 29.4139 64.1208 29.4139H62.6197V31.8194ZM74.2791 37.2525C73.3445 37.2525 72.4853 37.0406 71.7018 36.6165C70.9276 36.1925 70.3095 35.6028 69.8468 34.847C69.3936 34.0821 69.167 33.225 69.167 32.2756C69.167 31.3262 69.3936 30.4739 69.8468 29.718C70.3095 28.9622 70.9276 28.3725 71.7018 27.9484C72.4853 27.5244 73.3445 27.3125 74.2791 27.3125C75.2138 27.3125 76.0681 27.5244 76.8423 27.9484C77.6258 28.3725 78.2396 28.9622 78.6832 29.718C79.1364 30.4739 79.3629 31.3262 79.3629 32.2756C79.3629 33.225 79.1364 34.0821 78.6832 34.847C78.2301 35.6028 77.6165 36.1925 76.8423 36.6165C76.0681 37.0406 75.2138 37.2525 74.2791 37.2525ZM74.2791 35.0958C75.0722 35.0958 75.7048 34.8377 76.1767 34.3216C76.6582 33.8056 76.8989 33.1234 76.8989 32.2756C76.8989 31.4184 76.6582 30.7365 76.1767 30.2295C75.7048 29.7135 75.0722 29.4553 74.2791 29.4553C73.4766 29.4553 72.8347 29.7087 72.3533 30.2157C71.8813 30.7227 71.6452 31.4091 71.6452 32.2756C71.6452 33.1327 71.8813 33.8194 72.3533 34.3355C72.8347 34.8425 73.4766 35.0958 74.2791 35.0958ZM83.2307 27.4508V33.2571C83.2307 33.8378 83.377 34.2847 83.6697 34.5981C83.9625 34.9116 84.3919 35.0682 84.9584 35.0682C85.5248 35.0682 85.9592 34.9116 86.2612 34.5981C86.5632 34.2847 86.7143 33.8378 86.7143 33.2571V27.4508H89.1359V33.2433C89.1359 34.1097 88.9472 34.8425 88.5694 35.4414C88.1917 36.0404 87.6819 36.4921 87.04 36.7962C86.4074 37.1004 85.6994 37.2525 84.9159 37.2525C84.1324 37.2525 83.429 37.1049 82.8059 36.8101C82.1924 36.5059 81.706 36.0542 81.3473 35.4553C80.9887 34.847 80.8092 34.1097 80.8092 33.2433V27.4508H83.2307ZM98.5542 30.5751C98.5542 31.1374 98.4218 31.6535 98.1576 32.1235C97.8932 32.5842 97.4872 32.9575 96.9398 33.2433C96.3921 33.5291 95.7124 33.6719 94.9006 33.6719H93.3996V37.1557H90.978V27.4508L94.9006 27.4508C95.6936 27.4508 96.3638 27.5845 96.9115 27.8517C97.4588 28.1188 97.8695 28.4876 98.1435 28.9576C98.4172 29.4277 98.5542 29.9668 98.5542 30.5751ZM94.7165 31.7917C95.1789 31.7917 95.5237 31.6856 95.7503 31.4737C95.9769 31.2619 96.0901 30.9622 96.0901 30.5751C96.0901 30.188 95.9769 29.8884 95.7503 29.6765C95.5237 29.4647 95.1789 29.3586 94.7165 29.3586H93.3996V31.7917H94.7165Z" fill="#0072FF"/>
<path d="M104.234 37H102.095L105.358 27.542H107.935L111.191 37H109.059L106.685 29.7002H106.608L104.234 37ZM104.107 33.2803H109.167V34.8418H104.107V33.2803ZM115.254 37H112.791V35.2861H115.165C115.762 35.2861 116.261 35.1825 116.663 34.9751C117.069 34.7635 117.374 34.4355 117.577 33.9912C117.785 33.5426 117.888 32.9671 117.888 32.2646C117.888 31.5664 117.785 30.9951 117.577 30.5508C117.374 30.1064 117.069 29.7806 116.663 29.5732C116.261 29.3617 115.764 29.2559 115.171 29.2559H112.753V27.542H115.286C116.238 27.542 117.057 27.7324 117.742 28.1133C118.428 28.4899 118.955 29.0316 119.323 29.7383C119.691 30.4408 119.875 31.2829 119.875 32.2646C119.875 33.2507 119.689 34.097 119.316 34.8037C118.948 35.5104 118.419 36.0542 117.729 36.4351C117.04 36.8117 116.215 37 115.254 37ZM113.896 27.542V37H111.902V27.542H113.896ZM120.929 27.542H123.398L126 33.896H126.108L128.717 27.542H131.193V37H129.238V30.8428H129.162L126.705 36.9556H125.385L122.947 30.8301H122.871V37H120.929V27.542ZM134.411 27.542V37H132.418V27.542H134.411ZM143.539 27.542V37H141.812L137.706 31.0522H137.623V37H135.63V27.542H137.382L141.463 33.4897H141.546V27.542H143.539ZM147.348 37V27.542H151.074C151.789 27.542 152.398 27.6795 152.902 27.9546C153.41 28.2254 153.797 28.6021 154.063 29.0845C154.334 29.5669 154.47 30.1234 154.47 30.7539C154.47 31.3802 154.334 31.9325 154.063 32.4106C153.793 32.8888 153.399 33.2633 152.883 33.5342C152.371 33.8008 151.751 33.9341 151.023 33.9341H148.649V32.3345H150.699C151.084 32.3345 151.402 32.2668 151.651 32.1313C151.905 31.9959 152.094 31.8097 152.216 31.5728C152.343 31.3358 152.407 31.0628 152.407 30.7539C152.407 30.4365 152.343 30.1615 152.216 29.9287C152.094 29.6917 151.905 29.5076 151.651 29.3765C151.397 29.2453 151.078 29.1797 150.693 29.1797H149.341V37H147.348ZM155.879 37H153.74L157.002 27.542H159.58L162.836 37H160.703L158.329 29.7002H158.253L155.879 37ZM155.752 33.2803H160.811V34.8418H155.752V33.2803ZM171.456 27.542V37H169.729L165.623 31.0522H165.54V37H163.547V27.542H165.299L169.38 33.4897H169.463V27.542H171.456ZM172.675 37V27.542H179.048V29.1924H174.668V31.4141H178.718V33.0327H174.668V35.3496H179.061V37H172.675ZM180.216 37V27.542H182.209V35.3496H186.265V37H180.216Z" fill="#EAECEF"/>
</svg>
